<svg
  width="100%"
  viewBox="0 0 180 59"
  fill="none"
  xmlns="http://www.w3.org/2000/svg"
>
<path
    d="M68.1738 47V11.4531H80.625C84.9382 11.4531 88.2096 12.2832 90.4395 13.9434C92.6693 15.5872 93.7842 18.0042 93.7842 21.1943C93.7842 22.9359 93.3366 24.474 92.4414 25.8086C91.5462 27.127 90.3011 28.0954 88.7061 28.7139C90.529 29.1696 91.9613 30.0892 93.0029 31.4727C94.0609 32.8561 94.5898 34.5488 94.5898 36.5508C94.5898 39.9688 93.4993 42.5566 91.3184 44.3145C89.1374 46.0723 86.0286 46.9674 81.9922 47H68.1738ZM75.498 31.5215V41.1162H81.7725C83.4977 41.1162 84.8405 40.7093 85.8008 39.8955C86.7773 39.0654 87.2656 37.9261 87.2656 36.4775C87.2656 33.2223 85.5811 31.5703 82.2119 31.5215H75.498ZM75.498 26.3457H80.918C84.6126 26.2806 86.46 24.8076 86.46 21.9268C86.46 20.3154 85.988 19.1598 85.0439 18.46C84.1162 17.7438 82.6432 17.3857 80.625 17.3857H75.498V26.3457ZM111.802 47.4883C107.928 47.4883 104.771 46.3001 102.329 43.9238C99.904 41.5475 98.6914 38.3818 98.6914 34.4268V33.7432C98.6914 31.0902 99.2041 28.722 100.229 26.6387C101.255 24.5391 102.703 22.9277 104.575 21.8047C106.463 20.6654 108.612 20.0957 111.021 20.0957C114.634 20.0957 117.474 21.235 119.541 23.5137C121.624 25.7923 122.666 29.0231 122.666 33.2061V36.0869H105.845C106.073 37.8122 106.756 39.1956 107.896 40.2373C109.051 41.279 110.508 41.7998 112.266 41.7998C114.984 41.7998 117.108 40.8151 118.638 38.8457L122.104 42.7275C121.047 44.2249 119.614 45.3968 117.808 46.2432C116.001 47.0732 113.999 47.4883 111.802 47.4883ZM110.996 25.8086C109.596 25.8086 108.457 26.2806 107.578 27.2246C106.715 28.1686 106.162 29.5195 105.918 31.2773H115.732V30.7158C115.7 29.1533 115.277 27.9489 114.463 27.1025C113.649 26.2399 112.493 25.8086 110.996 25.8086ZM138.853 47.4883C134.979 47.4883 131.821 46.3001 129.38 43.9238C126.955 41.5475 125.742 38.3818 125.742 34.4268V33.7432C125.742 31.0902 126.255 28.722 127.28 26.6387C128.306 24.5391 129.754 22.9277 131.626 21.8047C133.514 20.6654 135.662 20.0957 138.071 20.0957C141.685 20.0957 144.525 21.235 146.592 23.5137C148.675 25.7923 149.717 29.0231 149.717 33.2061V36.0869H132.896C133.123 37.8122 133.807 39.1956 134.946 40.2373C136.102 41.279 137.559 41.7998 139.316 41.7998C142.035 41.7998 144.159 40.8151 145.688 38.8457L149.155 42.7275C148.097 44.2249 146.665 45.3968 144.858 46.2432C143.052 47.0732 141.05 47.4883 138.853 47.4883ZM138.047 25.8086C136.647 25.8086 135.508 26.2806 134.629 27.2246C133.766 28.1686 133.213 29.5195 132.969 31.2773H142.783V30.7158C142.751 29.1533 142.327 27.9489 141.514 27.1025C140.7 26.2399 139.544 25.8086 138.047 25.8086ZM177.524 34.0361C177.524 38.1051 176.597 41.3685 174.741 43.8262C172.902 46.2676 170.412 47.4883 167.271 47.4883C164.601 47.4883 162.445 46.5605 160.801 44.7051V57.1562H153.745V20.584H160.288L160.532 23.1719C162.241 21.1211 164.471 20.0957 167.222 20.0957C170.477 20.0957 173.008 21.3001 174.814 23.709C176.621 26.1178 177.524 29.4382 177.524 33.6699V34.0361ZM170.469 33.5234C170.469 31.0658 170.029 29.1696 169.15 27.835C168.288 26.5003 167.026 25.833 165.366 25.833C163.153 25.833 161.631 26.6794 160.801 28.3721V39.1875C161.663 40.929 163.201 41.7998 165.415 41.7998C168.784 41.7998 170.469 39.041 170.469 33.5234Z"
    fill="white"
  />
<path
    fill-rule="evenodd"
    clip-rule="evenodd"
    d="M27 57C41.9117 57 54 44.9117 54 30C54 15.0883 41.9117 3 27 3C12.0883 3 0 15.0883 0 30C0 44.9117 12.0883 57 27 57ZM27 50.52C38.3329 50.52 47.52 41.3329 47.52 30C47.52 18.6671 38.3329 9.48 27 9.48C15.6671 9.48 6.48 18.6671 6.48 30C6.48 41.3329 15.6671 50.52 27 50.52Z"
    fill="#F3F3F3"
  />
<path
    fill-rule="evenodd"
    clip-rule="evenodd"
    d="M27 44.04C34.754 44.04 41.04 37.754 41.04 30C41.04 22.2459 34.754 15.96 27 15.96C19.2459 15.96 12.96 22.2459 12.96 30C12.96 37.754 19.2459 44.04 27 44.04ZM27 38.64C31.7717 38.64 35.64 34.7717 35.64 30C35.64 25.2282 31.7717 21.36 27 21.36C22.2282 21.36 18.36 25.2282 18.36 30C18.36 34.7717 22.2282 38.64 27 38.64Z"
    fill="#F3F3F3"
  />
<circle r="3.78" transform="matrix(1 0 0 -1 27 30)" fill="#F3F3F3" />
</svg>
